<svg xmlns="http://www.w3.org/2000/svg" width="40" height="40" viewBox="0 0 40 40">
  <g id="Group_65889" data-name="Group 65889" transform="translate(-2290.07 4566.847)">
    <path id="Ellipse_70_-_Outline" data-name="Ellipse 70 - Outline" d="M20,1.875A18.125,18.125,0,0,0,7.184,32.816,18.125,18.125,0,0,0,32.816,7.184,18.006,18.006,0,0,0,20,1.875M20,0A20,20,0,1,1,0,20,20,20,0,0,1,20,0Z" transform="translate(2290.07 -4566.847)" fill="#fff"/>
    <path id="Union_27" data-name="Union 27" d="M-10105.481,10223.647l4.509,4.507,4.509-4.507.874.874-4.509,4.507,4.509,4.507-.874.874-4.509-4.507-4.509,4.507-.873-.874,4.508-4.507-4.508-4.507Z" transform="translate(12411.5 -14775.65)" fill="#fff"/>
  </g>
</svg>
